# xmcd
#
# Track frame offsets:
#	150
#	24130
#	45627
#	69387
#	93347
#	114200
#	138507
#	154765
#	171492
#	186980
#
# Disc length: 2734 seconds
#
# Revision: 0
# Processed by: cddbd v1.5.1PL2 Copyright (c) Steve Scherf et al.
# Submitted via: audiograbber 1.82.02
#
DISCID=7d0aac0a
DTITLE=Mello K. - Hard and Mello
DYEAR=1993
DGENRE=Rap
TTITLE0=Do Me
TTITLE1=Hold On To Your Love
TTITLE2=On The Road To A Dead End
TTITLE3=Him Or Me
TTITLE4=Summer Days Mello Nights
TTITLE5=The Mello In You
TTITLE6=Grease Your Baldy
TTITLE7=Run For The Border
TTITLE8=40 Deep The Head Banger
TTITLE9=Bring The Noise
EXTD=Cashflow420.com
EXTT0=
EXTT1=
EXTT2=
EXTT3=
EXTT4=
EXTT5=
EXTT6=
EXTT7=
EXTT8=
EXTT9=
PLAYORDER=
